<svg xmlns="http://www.w3.org/2000/svg" id="Layer_1" data-name="Layer 1" viewBox="0 0 963.54 712.93">
  <defs>
  </defs>
  <path d="M469.81 454.7H82.7c-2.49 0-5 0-7.46-.08a14.19 14.19 0 01-13.55-11 17.75 17.75 0 01.25-11.09c2.47-6.62 8.1-10.61 15.76-10.87 5.5-.19 11-.52 16.49-.56 13.61-.11 27.19-.8 40.79-1 11.22-.16 22.44-.27 33.66-.71 6.36-.24 12.73-.33 19.09-.54a20.81 20.81 0 008.2-1.6c10.23-4.71 8.24-17.48 2.21-21.8a24.63 24.63 0 00-14.74-5q-73.54.12-147.08.06a28.08 28.08 0 01-8-1 10.44 10.44 0 01-6.71-5.67 23.51 23.51 0 01-1.21-17.95c1.61-5.21 5.49-7.84 10.77-8.45a42.19 42.19 0 014.9-.11h207.32a46.5 46.5 0 009.35-.64c5.29-1.09 8.53-4.27 10.22-9.29a21.52 21.52 0 00-.51-14.9c-2.86-7.64-6.5-9.48-13.27-9.46-20 .07-40 0-59.93 0H129a69.69 69.69 0 01-9.36-.57c-6.86-.89-11-4.44-12.81-11.05a22.06 22.06 0 01-.36-10 11.56 11.56 0 017.91-9.1 40.78 40.78 0 0114-2.47h69a40.28 40.28 0 008-.75c6.59-1.35 9.68-5 9.8-11.75.06-3.34.18-6.67-.91-9.94a12 12 0 00-8.23-8 31.23 31.23 0 00-9.27-1.19h-104a16.67 16.67 0 01-8.68-2.22 12.7 12.7 0 01-6.34-8.59 20.54 20.54 0 01.72-10.85 10.09 10.09 0 018.87-7.45 57.5 57.5 0 017.41-.58h47c1.19 0 2.38-.1 3.56 0 4 .37 6.56-1.37 8.13-5a45.44 45.44 0 013.15-6c6.18-9.9 15.4-15.1 26.71-17a53.45 53.45 0 019-.68c7.34 0 14.69.08 22 0 59.82-1 119.64-.36 179.45-.36 11.21 0 22.45 0 33.66.49 10.95.5 20.92 3.92 29.38 11.26 9.43 8.21 14.06 18.52 14.3 31 .17 10.1-3.3 18.76-9.46 26.56a102.59 102.59 0 01-8.21 8.72 15.76 15.76 0 01-5.65 3.7c-6 2.24-9.68 6.67-11.75 12.56-1 2.75-1.81 5.54-2.58 8.35-5 18.23-11.21 36.08-17.15 54-1.31 4-2.51 8-3.81 12a23.86 23.86 0 00-1 9.61c.46 5 3.36 7.65 8.35 8.21a144.43 144.43 0 0015.84.48h172a53.79 53.79 0 0011.25-1.1c6.65-1.41 10.78-5.55 12.9-11.89a37.58 37.58 0 001.71-10.52 250 250 0 00-2.27-42.62c-1.86-13.93-4.85-27.63-7.66-41.37-4.84-23.69-10.12-47.28-15.29-70.91q-4.26-19.44-8.47-38.91c-1.35-6.25-2.6-7.34-8.95-7.34H546.6a18.68 18.68 0 01-8.45-1.82c-5.56-2.73-8-7.61-7.73-13.77a24.79 24.79 0 01.45-3.21c1.18-6.19 4.9-9.87 11.16-10.35a226.32 226.32 0 0134-.3 118.71 118.71 0 0017.79-.13c11.46-.86 22.67-3.15 33.78-5.78 8.73-2.06 17.55-3.67 26.2-6 4.68-1.27 6.64-.27 8.82 4.06a50.18 50.18 0 012.19 6.09c3.35 9.45 7.06 18.78 10.07 28.35 1.41 4.5 2.7 5.43 7.5 5.43 5.94 0 11.88-.09 17.82 0a27.93 27.93 0 0110.77 1.87c5.13 2.26 7.6 6.2 7.66 11.69.08 6 0 12.09 0 18.14v18.13c0 7.62-2.71 11.53-9.8 14.35-5.06 2-5.23 2.52-3.33 7.63q8.5 22.77 16.93 45.53 7.65 20.64 15.28 41.29c.34.91.69 1.82 1 2.73 1.67 4.39 4.85 6.58 9.55 7a159.87 159.87 0 0133.67 6.3 126.43 126.43 0 0129.24 13 124.11 124.11 0 0125.12 19.76 119.33 119.33 0 0119.93 28.13 125.38 125.38 0 0111.66 36.54A90.9 90.9 0 01869.5 449c.13 4.45-1 5.61-5.43 5.71H469.81z" transform="translate(-10.19 -7.49)" style="fill:#dd3d1d"/>
  <path d="M288.18 93.62c-.22.21-.14.59-.13 1.26v6.61c-.05 2.7-.15 5.41-.32 8.12-.11 1.65.4 4.15-.61 5.59a1.06 1.06 0 01-1.39.36 1.42 1.42 0 01-.44-1 15.25 15.25 0 01-.1-2v-8.87c0-2.22.42-5-.49-7.05a36.18 36.18 0 00-2.7 12.47c-.65 6.85.7 13.29 4.9 19a16.35 16.35 0 012.82 9.49 278.82 278.82 0 01-1.15 28.75 61.68 61.68 0 00-.11 6.8c.1 3.15-.62 6.22-.8 9.34a4.19 4.19 0 01-3.59 4 19.41 19.41 0 01-4.49.53H165.76a16.6 16.6 0 01-9-2.22 8.57 8.57 0 01-2.86-11.79v-.08a34.41 34.41 0 012.5-3.39 6.55 6.55 0 015.4-2.54c2 0 4.1 0 6.15-.12 2.64-.19 3.59-1 4.33-3.6.82-2.82.8-5.75 1.2-8.64 2.93-21.76 9.92-41.95 22.52-60.08A123 123 0 01225.21 65a158 158 0 0135.19-19.13 105.48 105.48 0 0120.92-5.34 77.11 77.11 0 0013.26-3c3.43-1.23 3.83-2.12 2.57-5.58s-2.94-6.25-6.77-7.23a8.17 8.17 0 01-1.75-.81c-4.6-2.48-5.25-6-1.78-10s8-5.46 12.88-6.12a25.18 25.18 0 0118.67 4.77 8.87 8.87 0 011.72 1.44c3.38 4.16 3.54 7.06-1.26 10.14a29.62 29.62 0 01-5.52 2.68 7.23 7.23 0 00-4.45 4.42 5 5 0 002.67 6.49l.27.11a14.73 14.73 0 003.15.74c17.21 2.53 33.77 7.17 49.2 15.37a137.89 137.89 0 0126 18.08 124.29 124.29 0 0117.12 18.84 147.87 147.87 0 0118.31 31.58 104.63 104.63 0 017.65 29.34c.4 3.53 0 7.12.77 10.64s1.65 4.43 5.14 4.52h3.56c5.33 0 8.9 2.81 11.39 7.26a4.12 4.12 0 01-.19 4.61c-3.4 4.84-7.33 8.34-14 8.31-34.76-.18-69.53-.08-104.31-.08a19.21 19.21 0 01-6.09-.59 4.81 4.81 0 01-3.69-4.73c-.07-1.52-.06-3-.06-4.54v-72.57c0-3.36-.59-6.66-.69-10a5 5 0 00-.51-1.85c-.44-1-1.19-1.26-2.05-.5a13.29 13.29 0 00-3.74 4.73c-3.67 8.66-5.18 17.76-6 27.07-.4 4.9-.48 9.69-.64 14.53a49.68 49.68 0 002.75 17.18 36.22 36.22 0 011.88 12.09c-.1 3.35 0 6.7 0 10.05v2.26c-.3 5.07-1.68 6.53-6.67 6.77a56.13 56.13 0 01-7.45-.07c-3.41-.31-4.79-1.75-5.17-5.13a37.46 37.46 0 01-.13-4.85 312.57 312.57 0 00-1.78-33.9 25.42 25.42 0 015.33-18.5 11.37 11.37 0 002.35-7.17 76.08 76.08 0 00-2-20.23c-.14-.52-.25-1.05-.42-1.57-.05-.18-.24-.31-.51-.65a4.06 4.06 0 00-.35 2.45v14.27c0 .65-.08 1.29-.06 2a3.08 3.08 0 01-.19 1.44 1.23 1.23 0 01-1.13.78 1.49 1.49 0 01-.83-.41 1.08 1.08 0 01-.26-.3 1.32 1.32 0 01-.08-.44c-.43-6.51-.43-13.07-1-19.59 0-.13-.05-1.51-.25-1.52-1-.09-2-.13-3-.2q.47 6.21.67 12.45a59.52 59.52 0 01.05 8.34 1.61 1.61 0 01-.37 1 1.4 1.4 0 01-1.42.15 1.85 1.85 0 01-1.12-.89 3 3 0 01-.14-.79c-.22-3.45-.39-6.9-.48-10.36-.08-3.16.45-6.78 0-9.87a9.12 9.12 0 00-1.38.07 1.21 1.21 0 00-.81.16zm59-31a5.53 5.53 0 002.51 2.82A160.15 160.15 0 01364.87 78a138.83 138.83 0 0127.33 34.61 114.08 114.08 0 0112.8 40.16c.45 3.41.82 6.85 1.28 10.26.34 2.37 1.29 3.6 3.29 3.8a44.15 44.15 0 009.05 0c2.07-.21 3.05-1.42 3.06-3.5a13.82 13.82 0 00-.47-3.19q-1.53-6.44-3.5-12.79c-6.06-19.59-15.16-37.54-28.71-53.11a123.2 123.2 0 00-36.45-29.07c-1.6-.86-3.27-1.53-5.45-2.51z" transform="translate(-10.19 -7.49)" style="fill:#ffad00"/>
  <path d="M836.52 463c6-.37 6.85 2 6.37 6.95-1 11-3.18 21.81-7.91 31.89a83.71 83.71 0 01-21.44 28.06A102.66 102.66 0 01780 549a77.36 77.36 0 01-22.84 4.23c-19.14.74-36.34-5.06-52.37-15.07a82.32 82.32 0 01-30.94-33.61c-5.56-11.17-8.34-23.09-9.68-35.42a21.75 21.75 0 01-.09-3.23c.08-2.07.59-2.62 2.73-2.81 1.28-.12 2.58-.08 3.92-.08zM240.19 461.73h83.55c5.48 0 6.17.61 6 6.17a83.74 83.74 0 01-4.95 25 76.5 76.5 0 01-6 13.57A81.2 81.2 0 01296.26 532a106.13 106.13 0 01-18.21 11.1 96 96 0 01-27.47 8.23 79.3 79.3 0 01-37.91-4.27c-19.51-7.15-36-18.6-47.58-36.23a85.75 85.75 0 01-12.85-35c-.5-3.4-.84-6.85-1.18-10.27-.3-2.94.35-3.66 3.33-3.8 1.29-.07 2.58 0 3.91 0z" transform="translate(-10.19 -7.49)" style="fill:#232323"/>
  <path d="M194.37 647.38V708c-.14 2.81-1.31 4.48-4 5.21a59.26 59.26 0 01-13.45 1.79c-3.73.13-5.51-1.69-5.87-5.46-.21-2.15-.15-4.32-.15-6.48V594.51a30.48 30.48 0 00-.32-5.81c-.81-4.11-2.17-5.5-6.33-6.19-1.48-.25-3.05-.17-4.42-.88s-3.7-1.59-3.58-3.3 2.14-2.94 4-3.3c3.8-.78 7.65-1.38 11.49-1.89 7.59-1 15.2-2 22.86-2.33a181.44 181.44 0 0122 .1 134.83 134.83 0 0116 2.13c8 1.56 15.33 4.71 21.31 10.27 5.41 5 8.66 11.26 8.58 18.88 0 4 .07 7.92-1.05 11.87-1.55 5.48-4.58 9.91-8.17 14.16-4.25 5-10 7.77-15.59 10.77-.56.3-1.2.5-1.73.85-.71.47-1.55 1-1.37 2s1 1 1.69 1.32c4 1.71 7.84 3.54 11.08 6.54 5.11 4.7 8.11 10.58 10.3 17 3 8.81 5.35 17.76 8.72 26.44 1.06 2.71 2 5.47 3.12 8.15a10 10 0 005.88 5.66 10.85 10.85 0 013.19 1.55c1.49 1.21 1.43 2.57-.13 3.71a5.4 5.4 0 01-2.39 1 92.05 92.05 0 01-15.45 1.46c-7.36-.11-12.43-3.72-15.57-10.22a66.25 66.25 0 01-3.17-9.17C238.49 684.59 235 674 232 663.35c-2.78-9.8-8.7-13.71-18.14-14.8-2.26-.27-4.52-.45-6.76-.75a7.26 7.26 0 01-5.1-2.48 2 2 0 01-.09-2.86l.09-.08a7.46 7.46 0 014.37-2.57c3.78-.9 7.57-1.73 11.34-2.7a28.87 28.87 0 007.73-3.24 23.39 23.39 0 0011.2-16.3 46.32 46.32 0 00.17-15.8c-1.62-10.49-8.26-16.59-18.22-19.13a74.81 74.81 0 00-18.61-2.17c-3.28 0-4.75 1.19-5.31 4.41a25.53 25.53 0 00-.22 4.19v58.3zM734.72 646.79v57.65a20.74 20.74 0 01-.28 4.52 5 5 0 01-4.23 4.34 65.68 65.68 0 01-14.47 1.25c-2.64-.15-3.92-1.33-4.28-4a34.1 34.1 0 01-.17-4.52V593a17.11 17.11 0 00-.65-6.08c-1-2.83-2.94-4.46-6-4.58-1.61-.07-3.24 0-4.89-.15a3 3 0 01-3-2.44c-.3-1.5.49-2.45 1.6-3.28a10.37 10.37 0 014.4-2c7.64-1.44 15.35-2.5 23.08-3.23 6.76-.63 13.56-.9 20.37-.86a139.12 139.12 0 0128 2.81c8.12 1.73 15.61 4.9 21.47 11.2a25.17 25.17 0 017 14.69c.74 6.91.37 13.79-2.74 20.28a34.77 34.77 0 01-9.7 12.34 55.47 55.47 0 01-12.23 7.38 9.78 9.78 0 00-1.45.72c-1.79 1.15-1.82 2.31-.08 3.43a9.61 9.61 0 001.74.84c9 3.35 14.83 9.8 18.41 18.45a42.68 42.68 0 012 5.49c2.26 8.91 5.67 17.45 8.2 26.28a39.82 39.82 0 002 5.13c1.55 3.42 3.64 6.32 7.39 7.75 1.57.6 3.46 1.38 3.24 3.53s-2.23 2.14-3.73 2.49c-4.43 1-8.82 2-13.43 2a15.84 15.84 0 01-13.29-6.85 47.94 47.94 0 01-6.13-12.45c-3.56-9.79-6.35-19.72-9.3-29.65-.57-2-1.15-3.92-1.91-5.88a17.3 17.3 0 00-11.3-10.61 55.14 55.14 0 00-11.48-1.88 12.8 12.8 0 01-7.68-3c-.53-.49-1.44-.81-1.21-1.74s1.16-.91 1.83-1.12c2.48-.77 5-1.49 7.46-2.17a105.91 105.91 0 0012.93-4.18c8.37-3.43 13.38-9.64 15-18.51a47.13 47.13 0 00.59-13.2c-1.23-12.07-8.5-18.53-18.72-21.31a63.6 63.6 0 00-18.08-2.25c-4.19.09-5.88 1.62-6.15 5.83-.09 1.29-.06 2.59-.06 3.92zM517.65 678.52v22a39 39 0 01-.41 4.83c-.39 3-2.12 4.58-4.9 5.23-6.4 1.51-12.83 2.94-19.35 3.92a134.49 134.49 0 01-25.83 1.33c-16-.68-31.11-4.77-44.85-13.17-14.74-9-24-22.15-28-38.86-3.56-15-3.8-30 1-44.75a63.4 63.4 0 0129-36.39c11.53-6.75 24.15-10.26 37.43-11.57a155.22 155.22 0 0140.61 1.69 33.93 33.93 0 017.25 1.61c4 1.61 5.68 3.79 5.56 8.07-.14 5.51 1 11 .67 16.48a11.79 11.79 0 01-.87 4.73 3.49 3.49 0 01-3.31 2.19c-1.59 0-2.11-1.2-2.56-2.51-2.12-6.13-5.24-11.59-10.67-15.46a38.18 38.18 0 00-12.26-5.67 65.78 65.78 0 00-17.33-2.18 54 54 0 00-27 6.96 45.52 45.52 0 00-16.54 15.61 44.43 44.43 0 00-5.87 15 106 106 0 00-2.11 23.51c.32 13.63 3.47 26.53 10.89 38.1a52.63 52.63 0 0026.24 21.18 69.06 69.06 0 0023.76 4.31 93.12 93.12 0 0110 .5c4.33.5 6-1 6-5.46q-.18-18.3-.6-36.58c-.08-3.92-1.38-5.31-5.24-6.27-2.21-.54-4.42-1-6.23-2.53-1-.81-1.08-1.54-.15-2.41a7.24 7.24 0 014.55-2.23c8-.53 15.92-1.17 23.89-1.62a6.62 6.62 0 017.22 6 6.33 6.33 0 010 .87v23.65zM112.69 682c0-5.93.06-11.88 0-17.81-.08-4.78-1.37-6.25-6.1-7.27a12.34 12.34 0 01-5.52-2.53 1.39 1.39 0 01-.5-1.89 1.5 1.5 0 01.27-.34 7.72 7.72 0 015.76-3.16c7.44-.34 14.87-.78 22.3-1.1 3.86-.16 6.46 2.41 6.51 6.36.05 4.21 0 8.42 0 12.62.05 5.4.08 10.78.48 16.17.47 6.43.11 12.91.09 19.36 0 .76-.19 1.5-.25 2.26-.24 3.86-2.63 5.76-6.13 6.48-5.7 1.18-11.37 2.54-17.16 3.28A145.29 145.29 0 0188 715.8c-16-.64-31.24-4-45.25-12a59.08 59.08 0 01-27.42-32.4 82.65 82.65 0 01-4.94-34.4c1.24-16.65 6.92-31.58 18.61-43.8a66 66 0 0124-15.59c16.65-6.51 33.84-8.18 51.53-6.7 5.93.5 11.75 1.67 17.63 2.3a24.87 24.87 0 015 1.19c4.42 1.44 5.88 3.39 6.22 8 .13 2 .26 3.92.47 5.8.42 3.92.62 7.95.85 11.93a3.72 3.72 0 01-1 3.29c-2.12 1.66-4.27 2.34-6.24-.73a10.07 10.07 0 01-.77-1.78c-3.8-9.79-11-15.76-21.06-18.43a68.79 68.79 0 00-29.53-1.39c-9.14 1.55-17 5.82-24 12-10.48 9.44-14.45 21.61-16 35.06a111 111 0 00-.58 13.88 67.66 67.66 0 0010.61 36.24c8 12.54 19.25 21.07 34.08 24.49a101.91 101.91 0 0027.31 2.42c4.09-.16 5.07-1.23 5.1-5.37V682zM912.66 570c5 .15 8.15 2.4 9.86 6.58 2.85 7 5.58 14 8.33 21.07q5.31 13.56 10.59 27.14 8.44 21.72 16.85 43.45 7.41 19.17 14.69 38.38a10.84 10.84 0 01.71 2.81c.2 2-.44 3.16-2.36 3.68a53.5 53.5 0 01-14.07 2c-3.34 0-5.55-2-7.08-4.9a132.2 132.2 0 01-5.39-12.54c-4-9.69-7.54-19.54-11.11-29.39-.15-.4-.26-.82-.42-1.22-1.63-4.15-3.77-5.69-8.15-5.43-12.73.78-25.46.37-38.2.51-5.93.07-7.43 1.15-9.49 6.79-4.72 13-9.42 25.95-14.24 38.88-2.09 5.63-5.87 7.75-11.91 7-1.39-.16-2.78-.36-4.15-.65a1.61 1.61 0 01-1.51-1.7 1.55 1.55 0 01.22-.72c.57-1.51 1.15-3 1.76-4.52l46-110.88c1.08-2.6 2.11-5.21 3.3-7.75a17.93 17.93 0 001.62-9.13c-.11-1.4-.17-2.8-.14-4.2.06-3.09 1.11-4.34 4.23-4.56a93.3 93.3 0 0010.06-.7zm-7.77 26.09c-.69 1.57-1.47 3.2-2.1 4.9-2.21 6-4.36 11.95-6.57 17.91-3.64 9.8-7.33 19.59-11 29.38-1.13 3-.65 3.85 2.42 3.86q18.29.07 36.56 0c2.61 0 2.87-.41 2-2.88q-9.8-25.68-19.68-51.33c-.29-.74-.35-1.58-1.63-1.88z" transform="translate(-10.19 -7.49)" style="fill:#ffad00"/>
  <path d="M595 607.65l3.56.16.45-28.76 2.25-1v29.7h4l-1.34-29.67 2.7 1.35L608 607.8h2.7l-.92-27.88 2.46.39.63 2.84S615 602.81 615 610.8c0 2.94.52 5.79.64 8.71a22.7 22.7 0 01-4.12 13.71 25.49 25.49 0 00-3.91 18.51 24.45 24.45 0 01.18 4.19c-.36 10.91.62 21.78.86 32.67.13 6 .34 12.07.49 18.1.07 2.94.76 5.77.63 8.71-.17 4.12-.9 5-4.9 5-8.16.13-15.77-2.15-23.11-5.5a90.66 90.66 0 01-27.16-18.49 71.48 71.48 0 01-19.88-38.88 87.49 87.49 0 011.69-39.18 70.43 70.43 0 0114-26.44c7.29-8.76 16.24-15.42 26.1-21a48.21 48.21 0 019.19-3.91 15.29 15.29 0 017-.37c2 .3 2.48 1.69 1.42 3.31a7.71 7.71 0 01-4.18 2.88 51.93 51.93 0 00-14.42 7.89 54.3 54.3 0 00-8.81 8.6 77.14 77.14 0 00-11.38 18.13 83.78 83.78 0 00-6.06 23.07 60.49 60.49 0 0028 58.57 72 72 0 0017.45 7.65c2.67.83 2.94.61 3.18-2.18.68-8.61 1.26-17.22 1.35-25.86.08-7.22.64-14.44.53-21.68a21.46 21.46 0 00-4.27-13.27 23.61 23.61 0 01-4.9-14.5c0-5.94.64-11.85.89-17.77.27-6.14.73-12.27 1.09-18.41.05-.76.12-2.27.12-2.27l2.46-.75z" transform="translate(-10.19 -7.49)" style="fill:#dd3d1d"/>
  <path d="M628.46 646v53.12a31.79 31.79 0 01-.08 3.24 3.44 3.44 0 01-2.73 3.2c-1.71.36-2.29-.9-2.94-2-2-3.5-3-7.4-4.15-11.22a146.16 146.16 0 01-5.72-47 10.11 10.11 0 012.15-6.32c3.26-3.92 4.45-8.51 4.44-13.54v-50.16c0-3.24.2-6.47.36-9.71.12-2.35.37-2.59 2.77-2.3a77.31 77.31 0 0123 6.51 79.17 79.17 0 0118.2 11 78.67 78.67 0 0127.85 76 76 76 0 01-24.61 43.9 73.28 73.28 0 01-35.95 18.18 7.09 7.09 0 01-5.3-.82 1.6 1.6 0 01-.55-2.66 8.78 8.78 0 015.7-3.42c5.88-1.1 11.05-3.62 16.09-6.61 9.9-5.87 16.9-14.34 21.77-24.61a79.43 79.43 0 007.94-32.52c.45-22.29-8.52-39.93-27.49-52.15a77.63 77.63 0 00-15-7.5 18.08 18.08 0 00-2.15-.72c-2.66-.64-3.59 0-3.61 2.84-.06 8 0 16 0 24z" transform="translate(-10.19 -7.49)" style="fill:#dd3d1d"/>
  <path d="M344.05 641.88v61.85c0 1.19 0 2.38-.05 3.56a6.29 6.29 0 01-4.73 5.88 49.26 49.26 0 01-12.14 1.77c-3.71.19-5.63-1.71-5.88-5.42-.15-2.58-.1-5.18-.1-7.77V597.16a76.89 76.89 0 00-.58-8.71 5.85 5.85 0 00-4.5-5.32 34.56 34.56 0 00-3.79-.83 8.59 8.59 0 01-3.09-.86c-1.19-.69-2.94-1.21-2.76-2.82a4.68 4.68 0 012.72-3.42 7.4 7.4 0 012.48-.69c7.9-1.18 15.84-2 23.79-2.76a18.15 18.15 0 011.95-.06c4.7 0 6.67 2 6.67 6.7v63.49z" transform="translate(-10.19 -7.49)" style="fill:#ffad00"/>
</svg>
